<?xml version="1.0" encoding="UTF-8"?>
<!DOCTYPE svg PUBLIC "-//W3C//DTD SVG 1.1//EN" "http://www.w3.org/Graphics/SVG/1.1/DTD/svg11.dtd">
<!-- Creator: CorelDRAW -->
<svg xmlns="http://www.w3.org/2000/svg" xml:space="preserve" style="shape-rendering:geometricPrecision; text-rendering:geometricPrecision; image-rendering:optimizeQuality; fill-rule:evenodd; clip-rule:evenodd"
viewBox="0 0 546.082 546.311"
 xmlns:xlink="http://www.w3.org/1999/xlink">
 <defs>
  <style type="text/css">
   <![CDATA[
    .str0 {stroke:#7ebf0a;stroke-width:0.541701}
    .fil1 {fill:none}
    .fil0 {fill:#7ebf0a}
   ]]>
  </style>
	
 </defs>
 
 <g id="Слой_x0020_1">
  <metadata id="CorelCorpID_0Corel-Layer"/>
  <circle class="fil0" cx="269.418" cy="128.683" r="8.45081"/>
  <circle class="fil0" cx="412.706" cy="124.678" r="8.45081"/>
  <circle class="fil0" cx="443.169" cy="317.116" r="8.45081"/>
  <circle class="fil0" cx="377.494" cy="394.744" r="8.45081"/>
  <circle class="fil0" cx="213.172" cy="404.026" r="8.45081"/>
  <circle class="fil0" cx="126.316" cy="185.712" r="8.45081"/>
  <circle class="fil0" cx="149.062" cy="98.0734" r="8.45081"/>
  <circle class="fil0" cx="105.14" cy="138.872" r="4.69486"/>
  <circle class="fil0" cx="121.422" cy="122.59" r="4.69486"/>
  <circle class="fil0" cx="147.497" cy="152.902" r="4.69486"/>
  <circle class="fil0" cx="186.622" cy="106.735" r="4.69486"/>
  <circle class="fil0" cx="385.944" cy="95.0396" r="4.69486"/>
  <circle class="fil0" cx="410.359" cy="286.653" r="4.69486"/>
  <circle class="fil0" cx="370.452" cy="171.627" r="4.69486"/>
  <circle class="fil0" cx="393.126" cy="204.135" r="4.69486"/>
  <circle class="fil0" cx="360.837" cy="378.087" r="4.69486"/>
  <circle class="fil0" cx="269.511" cy="410.34" r="4.69486"/>
  <circle class="fil0" cx="175.667" cy="377.421" r="4.69486"/>
  <circle class="fil0" cx="132.199" cy="305.868" r="4.69486"/>
  <circle class="fil0" cx="131.793" cy="241.269" r="4.69486"/>
  <circle class="fil0" cx="129.5" cy="206.002" r="4.69486"/>
  <circle class="fil0" cx="43.5173" cy="282.704" r="4.69486"/>
  <circle class="fil0" cx="86.234" cy="230.706" r="4.69486"/>
  <circle class="fil0" cx="357.258" cy="475.852" r="4.69486"/>
  <circle class="fil0" cx="410.359" cy="430.63" r="8.45081"/>
  <circle class="fil0" cx="52.0881" cy="325.103" r="8.45081"/>
  <polygon class="fil1 str0" points="270.065,545.915 268.601,0.572036 523.163,209.085 270.021,542.911 270.052,541.163 530.775,339.44 15.0631,214.794 5.48689,205.218 545.696,203.709 545.696,339.134 455.607,478.359 80.824,79.5913 268.946,129.155 455.607,74.9238 545.696,203.709 95.5003,477.847 83.484,470.711 458.466,79.0117 268.601,0.572036 80.824,79.5913 10.3105,205.204 5.48689,340.643 76.8492,470.575 "/>
  <polyline class="fil1 str0" points="80.824,79.5913 265.971,544.319 455.607,478.359 76.8492,470.575 28.3841,198.619 268.617,6.41212 0.698795,335.855 269.473,276.284 "/>
  <circle class="fil1 str0" cx="269.473" cy="271.698" r="140.886"/>
 </g>
</svg>
