<svg width="26" height="26" viewBox="0 0 26 26" fill="none" xmlns="http://www.w3.org/2000/svg">
<g clip-path="url(#clip0)">
<path d="M9.02832 0H17.0104C24.2951 0 26.0387 1.74367 26.0387 9.02832V17.0104C26.0387 24.2951 24.2951 26.0387 17.0104 26.0387H9.02832C1.74367 26 0 24.2563 0 16.9717V9.02832C0 1.74367 1.74367 0 9.02832 0Z" fill="#4680C2"/>
<path d="M20.638 9.60902C20.7453 9.27068 20.638 9 20.1012 9H18.3478C17.9183 9 17.7036 9.23684 17.5963 9.47368C17.5963 9.47368 16.7017 11.5376 15.4492 12.8571C15.0556 13.2293 14.8408 13.3647 14.6261 13.3647C14.5188 13.3647 14.3399 13.2293 14.3399 12.891V9.60902C14.3399 9.20301 14.1967 9 13.8389 9H11.0834C10.7972 9 10.654 9.20301 10.654 9.37218C10.654 9.7782 11.2981 9.8797 11.3339 10.9962V13.4323C11.3339 13.9737 11.2266 14.0752 11.0119 14.0752C10.4035 14.0752 8.97212 12.0113 8.11328 9.64286C7.97014 9.16917 7.79122 9 7.3618 9H5.60834C5.10735 9 5 9.23684 5 9.47368C5 9.91353 5.60834 12.0789 7.75544 14.9549C9.18683 16.9173 11.2266 18 13.0874 18C14.1967 18 14.3399 17.7632 14.3399 17.3571V15.8684C14.3399 15.3947 14.4472 15.2932 14.8051 15.2932C15.0556 15.2932 15.5208 15.4286 16.5585 16.3759C17.7394 17.4925 17.9541 18 18.5983 18H20.3517C20.8527 18 21.1032 17.7632 20.9601 17.2895C20.8169 16.8158 20.2444 16.1391 19.4929 15.3609C19.0992 14.9211 18.4551 14.4135 18.2762 14.1767C18.0257 13.8722 18.0973 13.7368 18.2762 13.4323C18.2762 13.3985 20.4233 10.5564 20.638 9.60902Z" fill="white"/>
</g>
<defs>
<clipPath id="clip0">
<rect width="26" height="26" fill="white"/>
</clipPath>
</defs>
</svg>
