<svg width="34" height="24" viewBox="0 0 34 24" fill="none" xmlns="http://www.w3.org/2000/svg">
<g clip-path="url(#clip0)">
<rect x="10" y="4" width="16" height="15" fill="#F8F7F5"/>
<path d="M33.6605 5.17476C33.6605 5.17476 33.3276 2.82287 32.309 1.78723C31.0174 0.42754 29.5661 0.420859 28.9037 0.34068C24.1469 -0.00341797 17.0067 -0.00341797 17.0067 -0.00341797H16.9933C16.9933 -0.00341797 9.85647 -0.00341797 5.09634 0.34068C4.43059 0.420859 2.98257 0.42754 1.69101 1.78723C0.67241 2.82287 0.339534 5.17476 0.339534 5.17476C0.339534 5.17476 0 7.93423 0 10.697V13.2861C0 16.0489 0.339534 18.8084 0.339534 18.8084C0.339534 18.8084 0.67241 21.1603 1.69101 22.1959C2.9859 23.5556 4.68357 23.5122 5.4392 23.6558C8.1588 23.9164 17 23.9999 17 23.9999C17 23.9999 24.1435 23.9899 28.9037 23.6425C29.5694 23.5623 31.0174 23.5556 32.309 22.1959C33.3276 21.1603 33.6605 18.8084 33.6605 18.8084C33.6605 18.8084 34 16.0456 34 13.2861V10.697C34 7.93423 33.6605 5.17476 33.6605 5.17476ZM13.4915 16.4231V6.83512L22.6789 11.6458L13.4915 16.4231Z" fill="#FF0000"/>
</g>
<defs>
<clipPath id="clip0">
<rect width="34" height="24" fill="white" transform="matrix(1 0 0 -1 0 24)"/>
</clipPath>
</defs>
</svg>
