<?xml version="1.0" encoding="UTF-8"?>
<!DOCTYPE svg PUBLIC "-//W3C//DTD SVG 1.1//EN" "http://www.w3.org/Graphics/SVG/1.1/DTD/svg11.dtd">
<!-- Creator: CorelDRAW -->
<svg xmlns="http://www.w3.org/2000/svg" xml:space="preserve" style="shape-rendering:geometricPrecision; text-rendering:geometricPrecision; image-rendering:optimizeQuality; fill-rule:evenodd; clip-rule:evenodd"
viewBox="0 0 62.6335 62.6335"
 xmlns:xlink="http://www.w3.org/1999/xlink">
 <defs>
  <style type="text/css">
   <![CDATA[
    .fil1 {fill:#84d91f}
    .fil0 {fill:#72c61b}
   ]]>
  </style>
 </defs>
 <g id="Слой_x0020_1">
  <metadata id="CorelCorpID_0Corel-Layer"/>
  <circle class="fil0" cx="31.3168" cy="31.3168" r="31.3168"/>
  <path class="fil1" d="M26.9072 17.6789c0,-0.898102 0,0.898102 0,0zm1.81837 -0.227312l-0.681872 0 0.681872 0zm0.227312 -0.227312l-0.227312 0.227312 0.227312 -0.227312zm0 0l0.488644 -0.124996 -0.488644 0.124996zm2.27299 -1.1365l0.45456 0.227312 0.454624 0 -0.0114043 0.715956 -0.44322 -0.261332 -0.681872 -0.227312 -0.681937 0 0.00412358 -0.712992 0.905125 0.258368zm12.956 -1.59106l-0.454624 0.227312 -0.486711 0.221062 0.259463 -0.675687 0.227248 -0.454624 0.454624 -0.227248 0.45456 0 0.227312 0.681872 -0.45456 0 -0.227312 0.227312zm0.909184 -2.04568l0.681872 0 0.227312 0.909184 0.227312 0.45456 0.227312 0.227312 0.227248 0.227312 0.227312 0.227312 0.227312 0.227312 0 0.45456 -1.1365 0 -0.943268 0.215908 0.261396 -0.44322 0 -0.45456 0.45456 0 0.227312 -0.227312 0 -0.681872 -0.45456 -0.227312 -0.454624 -0.227312 0 -0.681872zm-24.3209 -8.41003l-0.454624 0.227312c-0.879482,0.293161 -1.67256,0.722592 -2.50024,1.1365l-0.454624 0.227312 -0.45456 0.227248 -0.454624 0.227312c-0.462807,0.462807 -1.12831,0.673625 -1.59106,1.1365l-0.454624 0.227312 -0.227312 0.227312 0 0.227248 1.59112 0.227312 0.227248 0.227312 0.909249 0.227312 0.681872 0 0 0.45456 2.04568 0 0 -0.45456 -0.227312 -0.227312 -1.36381 0 0 -0.909184 -0.909184 -0.227312 0.227312 -0.227312 0.454624 -0.227312 0.227248 -0.227248 1.59112 0 0.227312 0.45456 0.227248 0.227312 0.227312 0.227312 1.59112 0 0.227248 -0.227312 0.227312 -0.227312 0 0.227312 -0.227312 0.227312 -0.227248 0.227312 -1.36381 0.227248 0 1.1365 2.04568 0 0.227312 -0.227312 1.1365 -0.227248 0.227248 -0.227312 0 -0.681872 -0.227248 -0.227312 -0.227312 -0.227312 0.45456 -0.227312 0.909249 0 0.227248 0.227312 -0.227248 0.227312 -0.227312 0.227312 0 0.45456 0.227312 0.454624 0.45456 0.227248 0.909184 0 0.227312 -1.36374 0.227312 -0.227312 0.681872 -0.227312 2.04568 0 0.454624 0.227312 0.45456 0.227312 0.454624 0.227312 0.681872 0.227248 0.227312 1.1365 0.45456 0.227312 0 0.454624 -1.36374 0 -0.227312 0.45456 -0.00618537 0.486711 -0.675687 -0.259399 -1.1365 -0.227312 -0.71602 -0.102252 0.488708 -0.12506 0.454624 -0.227248 0.45456 -0.227312 0.454624 -0.227312 0.227248 -0.227312 0 -0.227312 -0.227248 -0.227248 -0.227312 -0.227312 -0.454624 -0.227312 -0.909184 0 -1.36374 0.227312 -0.227312 0.227312 -0.227312 0.227248 -0.227312 0.227312 -0.909184 0.227312 0 0.454624 0 0.227248 -0.227312 0.227312 0 0.454624 -0.681872 0 0 -0.909184 -0.681872 0 -0.681937 0.227248 -0.45456 0.227312 -0.454624 0.227312 -0.45456 0.227312 -0.227312 0.227248 -0.454624 0.227312 -0.45456 0.227312 -0.227312 0.227312 0 0.681872 0.227312 0.681872 0.227312 0.227312 0.45456 0.227312 1.1365 0.227312 0.454624 0 0 1.59106 0.909184 0 0.227248 -0.45456 0.227312 -0.454624 0.227312 -0.454624 0.909184 -0.227248 0.454624 -0.227312 0.227248 -2.04568 0.227312 -0.227312 0.227312 -0.227312 0.227312 0 1.1365 0.227312 0.711768 0.00289939 -0.257208 1.1336 0 0.227312 1.1365 0 0.454624 -0.227312 0.45456 -0.227312 0.227312 1.59112 0.454624 0.227248 0.45456 0.227312 0.227312 0.909184 -0.454624 0 -0.909184 0 -0.681872 0 0 0.454624 -0.681872 0 -0.454624 0.227312 0 -0.454624 -0.227312 -0.227312 -1.1365 0 -0.227248 0.227312 0 0.909184 0.681872 0 -0.227312 0.227312 -0.909184 0 -0.227312 0.227312 -0.227312 0.227312 -0.227248 0.227248 -0.227312 0.227312 -0.227312 0.227312 -0.227312 0.227312 -0.45456 0.227248 -0.454624 0.227312 -0.227312 0.227312 -0.45456 0.227312 -0.227312 0.227248 -0.227312 0.227312 -0.227248 0.227312 -0.227312 0.227312 -0.227312 0.227312 -0.227312 0.227248 -0.227312 0.227312 -0.227248 0.681872 -0.227312 0.454624 -0.227312 0.227312 -0.45456 0.227312 -0.227312 0.227248 -0.454624 0.227312 -0.227312 0.227312 -0.227248 0.227312 -0.227312 0.227248 -0.227312 0.227312 -0.227312 0.227312 0 0.681872 0.215972 0.943333 -0.44322 -0.261396 -0.454624 -0.227312 -0.227312 -0.909184 -3.86405 0 -0.454624 0.227248 -0.45456 0.227312 -0.454624 0.227312 -0.227248 0.227312 -0.227312 0.227312 -0.227312 0.45456 -0.227312 0.454624 -0.227312 0.681872 0 1.1365 0.227312 0.45456 0.227312 0.227312 0.227312 0.227312 1.59106 0 0.454624 -0.227312 0.227312 -0.227312 0.45456 -0.227248 0.227312 -0.227312 0.45456 0 0 0.227312 -0.227248 0.227248 -0.227312 0.454624 0 0.681872 1.36381 0.227312 0.227248 0.909184 0.227312 1.59112 0.454624 0.227248 1.36374 0.227312 0.909184 0 0.227312 -0.45456 0.227312 -0.227312 0.227312 -0.227312 0.227312 -0.227312 0.227248 -0.227312 1.1365 0 0.681937 0.227312 0.227248 0.454624 0.227312 0.227312 1.81837 0 0.227312 -0.227312 0.454624 0 0.227248 0.227312 0.227312 0.227248 0.227312 0.454624 0.227312 0.227312 0.227312 0.45456 0.227248 0.227312 1.81843 0.227312 0.227248 0.227312 0.227312 0.45456 0.227312 1.59106 0.227312 0.227312 0.681872 0.227312 0.454624 0.227312 0.681872 0.227312 2.72755 0.227248 0.227312 0.454624 0.227312 0.227312 0.227312 0.227248 0.227248 0.227312 0.681937 0.227312 0 0.227312 -0.227312 0.681872 -0.227312 0.227312 -0.227312 0.227312 -0.227248 0.45456 -0.227312 0.227312 -0.227312 0.227312 -0.227312 2.04568 -0.227312 1.59106 -0.45456 0.227312 -0.227312 0.227312 -0.227312 0.227248 -0.227248 0 -1.59112 0 -0.227312 0.454624 -0.227248 0.45456 0 0.681937 0.227248 0.909184 0 0.45456 -0.227248 0.227312 -0.227312 0.454624 -0.227312 0.227312 -0.227312 0.227248 -0.227312 0.227312 -0.227248 0.454624 -0.227312 0.227248 -0.227312 0.454624 -0.227312 0.227312 -0.227248 0.45456 -0.454624 0.227312 -0.454624 0.227312 -0.45456 0.227312 -1.1365 0.227248 -0.227312 0.227312 0 0.681872 0.71602 0.0114043 -0.261396 0.44322 -0.227312 0.227312 -0.227312 0.227312 0 0.681872 0.227312 0.227312 0.940304 0.00405915 -0.258432 0.905125 0 1.1365 0.227312 0.227248 0.227312 0.227312 0.227312 0.227312 0.227248 0.227312 0.225701 0.481943 -1.58945 -0.254695 -0.454624 -0.227248 -0.227312 -0.227312 -0.227248 -0.227312 -0.227312 -0.227312 -0.227312 -0.227248 -0.227312 -0.227312 -0.227248 -0.227312 -0.227312 -0.45456 -0.227312 -0.454624 -0.227312 -0.454624 -0.227312 -0.227248 -0.227248 -0.454624 0 -0.227312 0 -2.27293 -0.227312 -0.227312 -0.227312 -0.454624 -0.227312 -0.227248 0 -0.909249 0.227312 -1.36374 0 -0.227312 -0.45456 -0.227312 -0.227312 -5.00055 -0.227312 -0.227312 -0.227312 -0.227248 -0.45456 -0.227312 -0.227312 -0.227312 -0.454624 -0.227312 -0.45456 -0.227248 -0.681937 0 0 -0.909249 -0.227248 -0.45456 -0.227312 -0.227312 -0.227312 -0.227312 -0.227312 -0.227248 -0.227248 -0.454624 -0.227312 -0.227312 -0.227312 -0.227248 -0.227312 -0.227312 -0.227312 -0.454624 0 -0.681872 0 -2.04568 0.454624 0 0.227312 -0.227312 0.45456 -0.227312 0.227312 -0.227248 0.227312 -0.227312 0 -0.454624 -0.227312 -1.59106 -2.27299 -0.227312 -0.227248 -0.227312 -0.227312 -0.227248 -0.227312 -0.227312 -0.227312 -0.227312 -0.227312 -0.227312 -0.227248 -0.45456 -0.227312 -0.227312 -0.454624 -0.227312 -0.909184 -0.227312 -0.681872 -0.227248 0 -0.454624 -0.454624 -0.227312 -0.909184 0 -0.909184 0 -0.909184 -0.227312 -0.454624 -0.227248 -0.227248 -0.227312 -0.227312 -0.454624 -0.227312 -0.227248 0 -0.681937 0 -0.909184 -0.227312 -0.227312 -0.227248 -0.227248 -0.227312 -0.454624 -0.227312 -0.227312 -0.227312 -0.45456 -0.227312 -0.227312 -0.227248 -1.36381 -0.227312 -0.45456 -0.909184 0 0 0.45456 0.227312 1.59112 0.227248 0.227312 0.227312 0.45456 0.227312 0.227312 0.227312 0.45456 0.215908 0.71602 -0.44322 -0.261396 -0.454624 -0.227312 -0.227248 -0.45456 -0.227312 -0.454624 -0.227312 -0.227312 -0.227312 -0.45456 -0.227312 -2.5003 -0.45456 -0.227248 -0.454624 -0.227312 -0.227248 -1.59112 -0.227312 0 -0.227312 0.227312 -0.227312 0.681872 -0.227312 0.454624 -0.227248 0.681872 -0.227312 0.681937c-2.86943,11.4776 0.724654,27.4108 12.2741,33.1855l0.227312 0.227248 0.45456 0.227312 0.227312 0.227312 0.454624 0.227312 0.45456 0.227248c12.0868,6.04336 26.0693,3.47946 35.9131,-6.36429l0.227312 -0.227312 0.227312 -0.227312 0.227248 -0.45456 0 -0.227312 -0.909184 0 0 -2.04568 -0.227312 -0.227312 -0.227248 -0.45456 -0.227312 -0.227312 -0.227312 -0.227312 -0.227312 -2.72755 -0.227248 -0.227312 -0.227312 -0.227312 -0.227312 -0.227312 0 -1.13643 0.227312 -0.454624 0.227312 -0.227312 0.227248 -0.45456 0.227312 -0.454624 0 -0.227312 -0.227312 -0.45456 -0.227248 -0.454624 -0.227312 -0.45456 -0.227312 -0.227312 -0.227312 -0.454624 -0.227312 -0.45456 -0.227248 -0.454624 -0.227312 -0.227248 0 -2.27299 0 -0.681872 -1.81837 -0.227312 -0.227312 -0.227312 -0.227312 -0.227312 -2.04568 0 -0.227312 0.227312 -2.27293 0.227312 -1.1365 0 -0.227312 -0.227312 -0.227312 -0.227312 -0.227312 -0.227312 -0.227248 -0.227248 -0.227312 -0.454624 -0.227312 -0.227312 -0.227312 -0.227248 -0.227312 -0.227312 -0.227248 -0.227312 -0.227312 -0.227312 -0.227312 -0.227312 -0.227312 -2.50024 0.454624 0 0.227312 -0.681872 0 -0.681937 -0.681937 0 0 -0.45456 -0.227248 -0.454624 0.45456 0 0.227312 -0.227312 0.227312 -0.227248 0.45456 -0.227312 0.227312 -0.227312 0.454624 -0.227312 0.227248 -0.227248 0.227312 -0.227312 0.454624 -0.227312 0.227248 -0.227312 0 -1.81837 0.454624 0 0.227312 -0.227312 0.45456 -0.227248 2.5003 -0.227312 0.45456 -0.227312 0.454624 -0.227312 2.72755 -0.227312 0.227312 1.59112 0.909184 0.227312 0.681937 0.227248 0.909184 0.227312 0.45456 0.227312 0.909184 0 0.0016752 -0.936567 1.58945 0.254695 0.227312 0.227248 0.227248 0.227312 0.454624 0.227312 2.95486 0 0 -0.227312 -0.227312 -0.909184 -0.227312 -0.681872 -0.227248 -0.454624 -0.227312 -0.227312 -1.59112 -0.227248 -0.227248 -0.227312 -0.227312 -0.454624 -0.227312 -1.1365 -0.227312 -0.227248 -0.227248 0 -0.454624 0.227248 -0.227312 0.227312 -0.227312 0.454624 -0.227248 0.681872 -0.227312 -0.227312 -0.227312 -0.227248 -0.227312 -0.227312 -0.227248 -1.1365 -0.227312 -0.227312 -0.227312 -0.227312 -0.227312 -0.227248 -0.227312 -0.227312 -0.227248 -0.227312 -0.227312 -0.227312 -1.59112 0 0 0.454624 0.227312 0.681872 0.227312 0.227312 0.227312 0.227312 0.45456 0.227248 0.227312 0.227312 0.454624 0.227312 0 0.227312 0 0.909184 -0.454624 0 -0.45456 0 -0.454624 -0.227312 0.909184 0 0.227312 -0.227312 0 -0.45456 -0.227312 -0.227312 -0.45456 -0.227312 -0.227312 -0.227312 -0.454624 -0.227248 -0.227312 -0.227312 -0.45456 -0.227312 -0.227312 -0.45456 -0.227312 -0.227312 -0.227248 0 -0.227312 0.227312 -0.227312 0.227248 -1.36381 0.227312 -0.227248 0.227312 -0.227312 0.227312 -0.227312 0.227248 -0.227312 0.454624 -0.227312 0.227312 -0.227248 0.227312 -0.227312 0.45456 -0.00070874 0.47724 -2.4996 -0.249927 -0.45456 0 0 -1.1365 0 -0.454624 0 -0.681872 0.909184 0 0.909184 0 1.1365 0 0.227312 -0.45456 0 -0.454624 -0.454624 -0.227312 0 -0.45456 0 -0.681937 1.1365 0 0.454624 -0.227248 0.227248 -0.227312 0.227312 -0.227312 0.227312 -0.45456 0.227312 -0.227312 0.45456 -0.227312 1.36381 0 0.681872 0 0 -0.909184 -0.227312 -0.681872 -0.681872 0 -0.681872 0.227248 0 -0.45456 -0.227312 -0.454624 -0.681872 0 0 -0.45456 0 -0.227312 0.227248 -0.227312 0.227312 -0.227312 0.681937 -0.227248 0.681872 -0.227312 0.227312 -0.454624 0 -0.681872 -0.454624 -0.227312c-2.78999,-2.78999 -7.31961,-4.95519 -11.1376,-5.90973l-0.909184 -0.227312 -0.909184 -0.227248 -1.36381 -0.227312 -2.04568 -0.227312c-4.83103,0 -8.48136,0.326729 -12.956,1.81837z"/>
 </g>
</svg>
