<?xml version="1.0" encoding="UTF-8"?>
<!DOCTYPE svg PUBLIC "-//W3C//DTD SVG 1.1//EN" "http://www.w3.org/Graphics/SVG/1.1/DTD/svg11.dtd">
<!-- Creator: CorelDRAW -->
<svg xmlns="http://www.w3.org/2000/svg" xml:space="preserve" style="shape-rendering:geometricPrecision; text-rendering:geometricPrecision; image-rendering:optimizeQuality; fill-rule:evenodd; clip-rule:evenodd"
viewBox="0 0 1949.17 2019.05"
 xmlns:xlink="http://www.w3.org/1999/xlink">
 <defs>
  <style type="text/css">
   <![CDATA[
    .fil0 {fill:white}
    .fil1 {fill:white;fill-rule:nonzero}
   ]]>
  </style>
 </defs>
 <g id="Слой_x0020_1">
  <metadata id="CorelCorpID_0Corel-Layer"/>
  <path class="fil0" d="M1481.78 192.578c454.657,265.819 580.074,832.577 365.503,1222.99l42.739 18.7931c-226.446,510.182 -878.268,752.994 -1389.86,456.279l50.6996 -86.6841c384.433,189.678 816.812,129.368 1103.85,-188.571 152.025,-168.393 244.601,-391.488 244.601,-636.161 0,-327.232 -170.25,-613.527 -417.534,-786.649z"/>
  <path class="fil0" d="M467.386 1826.48c-454.657,-265.819 -580.074,-832.577 -365.503,-1222.99l-42.739 -18.7931c226.446,-510.182 878.268,-752.994 1389.86,-456.279l-50.6996 86.6841c-384.433,-189.678 -816.812,-129.368 -1103.85,188.571 -152.025,168.393 -244.601,391.488 -244.601,636.161 0,327.232 170.25,613.527 417.534,786.649z"/>
  <path class="fil1" d="M1255.85 697.986l0 506.632 -147.213 0 0 -278.147 -189.795 278.147 -147.566 0 0 -506.632 147.566 0 0 280.27 190.857 -280.27 146.151 0zm-1096.46 577.59l10.844 0 21.6101 56.175 -11.1174 0 -4.39245 -11.5739 -22.8999 0 -4.58786 11.5739 -11.1051 0 21.6486 -56.175zm5.50083 14.8974l-7.49427 19.2767 14.936 0 -7.44172 -19.2767zm37.496 -14.8974l10.8046 0 0 19.3284 15.2365 -19.3284 12.8646 0 -19.6158 25.0501 21.5312 31.1249 -12.6815 0 -17.335 -24.9335 0 24.9335 -10.8046 0 0 -56.175zm67.721 0l10.844 0 21.6101 56.175 -11.1174 0 -4.39245 -11.5739 -22.8999 0 -4.58786 11.5739 -11.1051 0 21.6486 -56.175zm5.50083 14.8974l-7.49427 19.2767 14.936 0 -7.44172 -19.2767zm55.6774 -14.8974l10.8054 0 18.0518 46.1257 6.26931 0 0 18.4557 -10.349 0 0 -8.40642 -38.6454 0 0 8.40642 -10.3481 0 0 -18.4557 6.2299 0 17.9861 -46.1257zm5.48769 14.8974l-12.2907 31.2283 24.5551 0 -12.2644 -31.2283zm38.7735 -14.8974l30.6684 0 0 10.4655 -20.046 0 0 10.1535 20.046 0 0 10.2833 -20.046 0 0 14.7677 20.046 0 0 10.5049 -30.6684 0 0 -56.175zm48.2365 0l10.4655 0 12.982 39.1791 13.1765 -39.1791 10.3095 0 9.46307 56.175 -10.3095 0 -6.03531 -35.4779 -11.9516 35.4779 -9.42366 0 -11.7948 -35.4779 -6.1519 35.4779 -10.4269 0 9.69706 -56.175zm108.073 0l0 56.175 -10.688 0 0 -35.1651 -20.9705 35.1651 -9.31939 0 0 -56.175 10.7003 0 0 36.3244 21.2578 -36.3244 9.01972 0zm48.0797 0l0 56.175 -10.6872 0 0 -22.6002 -2.67242 0 -11.2997 22.6002 -11.6913 0 12.7209 -24.3597c-7.39,-2.11166 -11.0788,-7.02546 -11.0788,-14.7414 0,-2.75042 0.390805,-5.14861 1.17324,-7.18146 0.768474,-2.03367 1.87685,-3.7537 3.31035,-5.17489 1.44664,-1.40723 3.11495,-2.44992 5.00494,-3.12808 1.90312,-0.677341 3.40148,-1.06815 4.523,-1.15928 1.12069,-0.104269 4.24878,-0.247948 9.35798,-0.430214l11.3391 0zm-10.6872 23.1478l0 -12.6823 -2.94582 0c-2.67242,0 -4.58786,0.156815 -5.76109,0.48276 -1.17324,0.312808 -2.1248,1.00329 -2.867,2.05912 -0.729886,1.05583 -1.10838,2.35879 -1.10838,3.9097 0,2.3202 0.743023,3.93679 2.21593,4.84894 1.47291,0.925289 3.84483,1.38178 7.10346,1.38178l3.3629 0zm86.2957 -23.1478l0 56.175 -10.688 0 0 -35.1651 -20.9705 35.1651 -9.31939 0 0 -56.175 10.7003 0 0 36.3244 21.2578 -36.3244 9.01972 0zm14.9352 0l10.844 0 0 21.1922 18.7948 0 0 -21.1922 10.8046 0 0 56.175 -10.8046 0 0 -24.6339 -18.7948 0 0 24.6339 -10.844 0 0 -56.175zm83.5182 0l0 7.25945 2.37193 0c13.4902,0 20.2414,5.56569 20.2414,16.6831 0,3.16749 -0.534484,5.83909 -1.59031,8.04189 -1.05501,2.2028 -2.60674,4.0271 -4.65272,5.46142 -2.04598,1.4335 -4.17078,2.38506 -6.3473,2.82759 -2.17652,0.443351 -5.51315,0.665026 -10.023,0.665026l0 15.2365 -10.766 0 0 -15.2365c-4.70526,0 -8.56323,-0.468802 -11.587,-1.40723 -3.01068,-0.951562 -5.48687,-2.73728 -7.42858,-5.37029 -1.9294,-2.63301 -2.89409,-5.94336 -2.89409,-9.9056 0,-3.74057 0.769295,-6.90806 2.3202,-9.47539 1.55091,-2.56733 3.7537,-4.47045 6.59525,-5.6831 2.82841,-1.22496 7.16832,-1.83744 12.9943,-1.83744l0 -7.25945 10.766 0zm-10.766 17.1133l-2.47619 0c-3.74057,0 -6.24303,0.599344 -7.48113,1.81117 -1.25123,1.21265 -1.87685,2.97209 -1.87685,5.29147 0,2.72414 0.756159,4.60099 2.26766,5.64369 1.52463,1.05583 3.74057,1.57718 6.67325,1.57718l2.89327 0 0 -14.3235zm10.766 0l0 14.3235 3.51889 0c3.61084,0 6.00904,-0.677341 7.18146,-2.03284 1.17324,-1.34237 1.76027,-3.10263 1.76027,-5.26602 0,-2.21593 -0.625617,-3.93597 -1.86454,-5.17407 -1.22496,-1.2381 -3.71429,-1.85058 -7.45486,-1.85058l-3.14122 0zm59.5756 -18.5214c7.95075,0 14.78,2.88096 20.4894,8.62809 5.72169,5.76109 8.57555,12.7734 8.57555,21.037 0,8.19788 -2.81528,15.1445 -8.45896,20.8145 -5.64287,5.6831 -12.4861,8.51151 -20.528,8.51151 -8.41956,0 -15.4187,-2.90723 -20.9968,-8.74632 -5.57883,-5.82595 -8.36783,-12.7463 -8.36783,-20.7628 0,-5.36947 1.30296,-10.3095 3.89738,-14.8186 2.5936,-4.50986 6.16421,-8.0813 10.7135,-10.7143 4.53531,-2.63219 9.43598,-3.9491 14.6757,-3.9491zm-0.104269 10.4664c-5.20034,0 -9.56652,1.79885 -13.0985,5.42201 -3.54516,3.61002 -5.31774,8.21102 -5.31774,13.7767 0,6.21676 2.22825,11.1306 6.68638,14.7406 3.46634,2.82841 7.42858,4.23646 11.9122,4.23646 5.07062,0 9.38425,-1.82513 12.9426,-5.48769 3.57144,-3.67488 5.35715,-8.18474 5.35715,-13.555 0,-5.35633 -1.79885,-9.87933 -5.39574,-13.5805 -3.58457,-3.70198 -7.95075,-5.55256 -13.0862,-5.55256zm41.3933 -9.05831l11.3391 0c6.13876,0 10.5575,0.573072 13.2685,1.7069 2.71101,1.13383 4.86126,2.95895 6.4253,5.50083 1.56404,2.52792 2.34647,5.56487 2.34647,9.0969 0,3.92365 -1.02956,7.18146 -3.07636,9.77588 -2.04598,2.60674 -4.83498,4.40477 -8.34156,5.42201 -2.05912,0.586208 -5.81282,0.88588 -11.2611,0.88588l0 23.7866 -10.7003 0 0 -56.175zm10.7003 21.9615l3.38917 0c2.6716,0 4.53531,-0.195403 5.57801,-0.573072 1.04269,-0.37849 1.86371,-1.01724 2.46388,-1.88999 0.599344,-0.873565 0.899016,-1.94253 0.899016,-3.19377 0,-2.16339 -0.847292,-3.74057 -2.5156,-4.73071 -1.22496,-0.743023 -3.49262,-1.10838 -6.80379,-1.10838l-3.01068 0 0 11.4959zm40.7423 -21.9615l10.4655 0 12.982 39.1791 13.1765 -39.1791 10.3095 0 9.46307 56.175 -10.3095 0 -6.03531 -35.4779 -11.9516 35.4779 -9.42366 0 -11.7948 -35.4779 -6.1519 35.4779 -10.4269 0 9.69706 -56.175zm84.2473 0l10.844 0 21.6101 56.175 -11.1174 0 -4.39245 -11.5739 -22.8999 0 -4.58786 11.5739 -11.1051 0 21.6486 -56.175zm5.50083 14.8974l-7.49427 19.2767 14.936 0 -7.44172 -19.2767zm37.3786 41.2776l0 -56.175 10.844 0 0 46.5559 18.7948 0 0 -46.5559 10.8046 0 0 46.5559 11.4179 0 0 18.0255 -10.0099 0 0 -8.40642 -41.8515 0zm101.818 -56.175l0 56.175 -10.688 0 0 -35.1651 -20.9705 35.1651 -9.31939 0 0 -56.175 10.7003 0 0 36.3244 21.2578 -36.3244 9.01972 0zm41.5107 -1.40805c7.95075,0 14.78,2.88096 20.4894,8.62809 5.72169,5.76109 8.57555,12.7734 8.57555,21.037 0,8.19788 -2.81528,15.1445 -8.45896,20.8145 -5.64287,5.6831 -12.4861,8.51151 -20.528,8.51151 -8.41956,0 -15.4187,-2.90723 -20.9968,-8.74632 -5.57883,-5.82595 -8.36783,-12.7463 -8.36783,-20.7628 0,-5.36947 1.30296,-10.3095 3.89738,-14.8186 2.5936,-4.50986 6.16421,-8.0813 10.7135,-10.7143 4.53531,-2.63219 9.43598,-3.9491 14.6757,-3.9491zm-0.104269 10.4664c-5.20034,0 -9.56652,1.79885 -13.0985,5.42201 -3.54516,3.61002 -5.31774,8.21102 -5.31774,13.7767 0,6.21676 2.22825,11.1306 6.68638,14.7406 3.46634,2.82841 7.42858,4.23646 11.9122,4.23646 5.07062,0 9.38425,-1.82513 12.9426,-5.48769 3.57144,-3.67488 5.35715,-8.18474 5.35715,-13.555 0,-5.35633 -1.79885,-9.87933 -5.39574,-13.5805 -3.58457,-3.70198 -7.95075,-5.55256 -13.0862,-5.55256zm41.3933 -9.05831l10.844 0 0 21.1922 18.7948 0 0 -21.1922 10.8046 0 0 56.175 -10.8046 0 0 -24.6339 -18.7948 0 0 24.6339 -10.844 0 0 -56.175zm55.3786 0l10.844 0 0 21.1922 18.7948 0 0 -21.1922 10.8046 0 0 56.175 -10.8046 0 0 -24.6339 -18.7948 0 0 24.6339 -10.844 0 0 -56.175zm98.2596 0l10.6224 0 0 56.175 -10.6224 0 0 -56.175zm-42.881 56.175l0 -56.175 10.7003 0 0 21.1922 2.3202 0c4.45732,0 8.17243,0.521347 11.1306,1.55173 2.97209,1.02956 5.53942,2.99754 7.70281,5.87768 2.16421,2.89327 3.24549,6.37357 3.24549,10.4401 0,3.84483 -0.938425,7.10346 -2.789,9.77506 -1.86371,2.68555 -4.01396,4.57472 -6.47784,5.6831 -2.44992,1.10756 -5.82595,1.65518 -10.101,1.65518l-15.7316 0zm10.7003 -25.4286l0 15.2365 2.67242 0c4.43104,0 7.39,-0.54762 8.88836,-1.64286 1.51232,-1.09442 2.25534,-2.97127 2.25534,-5.61742 0,-5.31774 -3.87111,-7.97621 -11.6002,-7.97621l-2.21593 0zm54.115 -30.7464l12.0296 0 11.757 17.9861 11.8736 -17.9861 12.0296 0 -17.8687 27.1881 18.977 28.9869 -12.0304 0 -12.9811 -19.7463 -12.8646 19.7463 -12.1084 0 18.977 -28.9869 -17.7907 -27.1881zm130.362 9.89246l-7.48113 7.14205c-5.09607,-5.36947 -10.8178,-8.0542 -17.1782,-8.0542 -5.3826,0 -9.9056,1.83744 -13.5813,5.50001 -3.6757,3.66257 -5.51315,8.18474 -5.51315,13.555 0,3.74057 0.807883,7.06405 2.43761,9.95733 1.6289,2.90641 3.93597,5.18802 6.90724,6.8432 2.98523,1.65518 6.29558,2.47619 9.93187,2.47619 3.10181,0 5.94336,-0.573893 8.52383,-1.73317 2.56815,-1.1601 5.39656,-3.25863 8.4721,-6.32185l7.26028 7.55995c-4.15846,4.05337 -8.0813,6.85551 -11.7701,8.41956 -3.68802,1.56404 -7.89821,2.34647 -12.6421,2.34647 -8.72005,0 -15.8752,-2.76355 -21.4409,-8.30297 -5.55173,-5.53942 -8.34156,-12.6297 -8.34156,-21.2841 0,-5.60428 1.26437,-10.5829 3.80625,-14.9368 2.52874,-4.35305 6.1519,-7.84566 10.8826,-10.4918 4.7184,-2.64615 9.80133,-3.97538 15.2496,-3.97538 4.6404,0 9.09772,0.977834 13.3859,2.94582 4.28819,1.95485 7.98934,4.74385 11.0912,8.3547zm52.4853 -9.89246l0 56.175 -10.688 0 0 -35.1651 -20.9705 35.1651 -9.31939 0 0 -56.175 10.7003 0 0 36.3244 21.2578 -36.3244 9.01972 0zm66.6003 9.89246l-7.48113 7.14205c-5.09607,-5.36947 -10.8178,-8.0542 -17.1782,-8.0542 -5.3826,0 -9.9056,1.83744 -13.5813,5.50001 -3.6757,3.66257 -5.51315,8.18474 -5.51315,13.555 0,3.74057 0.807883,7.06405 2.43761,9.95733 1.6289,2.90641 3.93597,5.18802 6.90724,6.8432 2.98523,1.65518 6.29558,2.47619 9.93187,2.47619 3.10181,0 5.94336,-0.573893 8.52383,-1.73317 2.56815,-1.1601 5.39656,-3.25863 8.4721,-6.32185l7.26028 7.55995c-4.15846,4.05337 -8.0813,6.85551 -11.7701,8.41956 -3.68802,1.56404 -7.89821,2.34647 -12.6421,2.34647 -8.72005,0 -15.8752,-2.76355 -21.4409,-8.30297 -5.55173,-5.53942 -8.34156,-12.6297 -8.34156,-21.2841 0,-5.60428 1.26437,-10.5829 3.80625,-14.9368 2.52874,-4.35305 6.1519,-7.84566 10.8826,-10.4918 4.7184,-2.64615 9.80133,-3.97538 15.2496,-3.97538 4.6404,0 9.09772,0.977834 13.3859,2.94582 4.28819,1.95485 7.98934,4.74385 11.0912,8.3547zm6.0074 -9.89246l31.046 0 0 10.5444 -10.2315 0 0 45.6306 -10.844 0 0 -45.6306 -9.97046 0 0 -10.5444zm40.6109 0l30.6684 0 0 10.4655 -20.046 0 0 10.1535 20.046 0 0 10.2833 -20.046 0 0 14.7677 20.046 0 0 10.5049 -30.6684 0 0 -56.175zm48.2365 0l10.4655 0 12.982 39.1791 13.1765 -39.1791 10.3095 0 9.46307 56.175 -10.3095 0 -6.03531 -35.4779 -11.9516 35.4779 -9.42366 0 -11.7948 -35.4779 -6.1519 35.4779 -10.4269 0 9.69706 -56.175zm-187.866 -575.595c126.958,0 232.211,93.0708 251.263,214.689l-151.848 0c-15.7611,-39.4623 -54.3359,-67.3532 -99.4156,-67.3532 -59.0912,0 -107.013,47.9213 -107.013,107.013 0,59.0912 47.9213,107.013 107.013,107.013 52.5814,0 96.3171,-37.9451 105.315,-87.9402l148.322 0c-9.75782,131.545 -119.604,235.276 -253.638,235.276 -140.449,0 -254.349,-113.899 -254.349,-254.349 0,-140.449 113.899,-254.349 254.349,-254.349zm-1134.91 322.37l82.6726 0 -64.9862 -187.672 -114.066 375.345 -180.807 0 190.385 -506.632 212.395 0 190.504 506.632 -168.439 0 -20.2036 -58.3458 -162.687 0 35.2316 -129.327z"/>
 </g>
</svg>
