<?xml version="1.0" encoding="UTF-8"?>
<!DOCTYPE svg PUBLIC "-//W3C//DTD SVG 1.1//EN" "http://www.w3.org/Graphics/SVG/1.1/DTD/svg11.dtd">
<!-- Creator: CorelDRAW -->
<svg xmlns="http://www.w3.org/2000/svg" xml:space="preserve" style="shape-rendering:geometricPrecision; text-rendering:geometricPrecision; image-rendering:optimizeQuality; fill-rule:evenodd; clip-rule:evenodd"
viewBox="0 0 546.082 546.311"
 xmlns:xlink="http://www.w3.org/1999/xlink">
 <defs>
  <style type="text/css">
   <![CDATA[
    .str0 {stroke:#8cd50b;stroke-width:0.541701}
    .fil1 {fill:none}
    .fil0 {fill:#8cd50b}
    //.fil0 {fill:transparent}
   ]]>
  </style>
 </defs>
 <g id="Слой_x0020_1">
  <metadata id="CorelCorpID_0Corel-Layer"/>
  <path id="path0" stroke="#8cd50b" stroke-width="0" fill="none" d="M 269.418 128.683  L 80.824,79.5913 L 268.601,0.572036 L 450.4 75.8z" />
  <circle id="circle0" class="fil0" r="8.45081" cx="155" cy="100" />
  <path id="path1" stroke="#8cd50b" stroke-width="0" fill="none" d="M 460.4 78.8z   L 262.706 284.678  L 460.4 78.8z" />
  <circle id="circle1" class="fil0" r="8.45081" cx="270" cy="126"/>
  <path id="path2" stroke="#8cd50b" stroke-width="0" fill="none" d="M 544.169 344.116 L 443.169 317.116   L 260.706 270.678 L 544.169 344.116" />
  <circle id="circle2" class="fil0" r="8.45081" cx="415" cy="120"/>
  <path id="path3" stroke="#8cd50b" stroke-width="0" fill="none" d="M 447.359 470.63 L 410.359 430.63  L 260.706 270.678 L 447.359 470.63" />
  <circle id="circle3" class="fil0" r="8.45081" cx="430" cy="270"/>
  <path id="path4" stroke="#8cd50b" stroke-width="0" fill="none" d="M 447.359 470.63 L 410.359 430.63  L 260.706 270.678 L 447.359 470.63" />
  <circle id="circle4" class="fil0" r="8.45081" cx="380" cy="400"/>
  <path id="path5" stroke="#8cd50b" stroke-width="0" fill="none" d="M 267.706 277.678 L 455.0 478.0 L 357.258 475.852  L 83.258 470.852 L 267.706 277.678" />
  <circle id="circle5" class="fil0" r="4.69486" cx="473" cy="325"/>
  <path id="path6" stroke="#8cd50b" stroke-width="0" fill="none" d="M 265.172 544.026  L 210.172 404.026 L 80.824 79.5913  L 80.824 79.5913 L 455.0 478.0 L 265.172 544.026" />
  <circle id="circle6" class="fil0" r="8.45081" cx="393" cy="205"/>
  <path id="path7" stroke="#8cd50b" stroke-width="0" fill="none" d="M 120.316 188.712 L 0.316 335.712 L 267.706 277.678 L 268.601 5.7 L 120.316 188.712" />
  <circle id="circle7" class="fil0" r="8.45081" cx="130" cy="240"/>
  <!--/// L 267.706 277.678 -->
  <path id="path8" stroke="#8cd50b" stroke-width="0" fill="none" d="M 28.062 200.0734  L 155.062 98.0734  L 268.601 5.7  L 267.706 277.678 L 267.706 544.678 L 75.258 468.852 L 28.062 200.0734" />
  <circle id="circle8" class="fil0" r="8.45081" cx="210" cy="405"/>
  <path id="path9" stroke="#8cd50b" stroke-width="0" fill="none" d="M 52.0881 325.103  L 267.706 277.678 L 83.258 470.852 L 77.258 470.852 L 3.0881 335.103 L 52.0881 325.103" />
  <circle  id="circle9" class="fil0" r="8.45081" cx="320" cy="475"/>
  <path id="path10" stroke="#8cd50b" stroke-width="0" fill="none" d="M 105.14 138.872  L 267.706 544.678 L 522.706 208.678 L 268.601,0.572036 L 80.824,79.5913 L 105.14 138.872" />
  <circle id="circle10" class="fil0" r="4.69486" cx="173" cy="430"/>
  <path id="path11" stroke="#8cd50b" stroke-width="0" fill="none" d="M 121.422 122.59  L 28.062 200.0734 L 75.258 468.852 L 85.258 468.852 L 267.706 277.678 L 121.422 122.59" />
  <circle id="circle11" class="fil0" r="4.69486" cx="100" cy="313"/>
  <path id="path12" stroke="#8cd50b" stroke-width="0" fill="none" d="M 148.497 152.902  L 267.706 277.678 L 85.258 468.852 L 75.258 468.852 L 5.258 336.852 L 9.258 204.852 L 80.824,79.5913 L 148.497 152.902" />
  <circle id="circle12" class="fil0" r="4.69486" cx="350" cy="105"/>
  <path id="path13" stroke="#8cd50b" stroke-width="0" fill="none" d="M 186.622 106.735  L 3.258 333.852  L 267.706 277.678 L 268.601,5 L 186.622 106.735" />
  <circle id="circle13" class="fil0" r="4.69486" cx="450" cy="402"/>
  <path id="path14" stroke="#8cd50b" stroke-width="0" fill="none" d="M 385.944,95.0396  L 268.601,2 L 460.601,80 L 267.706 277.678 L 269.418 128.683 L 385.944,95.0396" />
    <circle id="circle14" class="fil0" r="4.69486" cx="150" cy="152"/>
  <path id="path15" stroke="#8cd50b" stroke-width="0" fill="none" d="M 129.5,206.002  L 545.601,205 L 95.601,480 L 85.258 468.852 L 75.258 468.852 L 29.5,205.002 L 129.5,206.002" />
  <path id="path16" stroke="#8cd50b" stroke-width="0" fill="none" d="M 186.622 106.735  L 3.258 333.852  L 267.706 277.678 L 268.601,5 L 186.622 106.735" />
  <path id="path17" stroke="#8cd50b" stroke-width="0" fill="none" d="M 9.258 204.852 L 80.234 225.706  L 269.706 273.678 L 544.169 344.116 L 9.258 204.852" />
  <path id="path18" stroke="#8cd50b" stroke-width="0" fill="none" d="M 545.601,205 L 95.601,480 L 545.601,205" />
  <path id="path24" stroke="#8cd50b" stroke-width="0" fill="none" d="M 538.601,205 L 537.169 344.116 L 524.169 344.116 L 268.172 544.026 L 522.706 208.678 L 545.601,205" />
  <path id="path25" stroke="#8cd50b" stroke-width="0" fill="none" d="M 268.601,0.572036 L 460.4 78.8  L 545.201,205  L 537.169,344.116  L 455.0 478.0 L 267.706 544.678  L 75.258 468.852 L 5.258 336.852 L 9.258 204.852 L 80.824,79.5913 L 268.601,0.572036" />
  <path id="path-circle" fill="none" d="
        M 269.473, 271.698
        m -140.886, 0
        a 140.886,140.886 0 1,0 281.772,0
        a 140.886,140.886 0 1,0 -281.772,0
    "/>
  <polygon  class="fil1 str0" points="270.065,545.915 268.601,0.572036 523.163,209.085 270.021,542.911 270.052,541.163 530.775,339.44 5.48689,205.218 5.48689,205.218 543.696,203.709 538.696,339.134 455.607,478.359 80.824,79.5913 268.946,129.155 455.607,74.9238 545.696,203.709 95.5003,477.847 83.484,470.711 458.466,79.0117 268.601,0.572036 80.824,79.5913 10.3105,205.204 5.48689,340.643 76.8492,470.575 "/>
  <polyline class="fil1 str0" points="80.824,79.5913 265.971,544.319 455.607,478.359 76.8492,470.575 28.3841,198.619 268.617,6.41212 0.698795,335.855 269.473,276.284 "/>
  <circle class="fil1 str0" cx="269.473" cy="271.698" r="140.886"/>
 </g>
</svg>